<svg width="48" height="48" viewBox="0 0 512 512" xmlns="http://www.w3.org/2000/svg"><path style="fill:#000" d="M237.5 472.316c-18.625-1.617-41.818-7.035-59.18-13.823-29.78-11.644-52.502-26.542-75.387-49.426-19.01-19.01-30.477-35.01-41.979-58.567-36.18-74.104-27.363-159.779 23.358-226.978 7.785-10.315 28.896-31.425 39.21-39.21 67.25-50.759 153.12-59.607 226.978-23.388 23.638 11.592 39.594 23.037 58.567 42.01 19.01 19.01 30.477 35.009 41.979 58.566 36.152 74.047 27.324 159.83-23.358 226.978-7.785 10.315-28.896 31.425-39.21 39.21-27.393 20.675-57.435 34.474-88.759 40.768-19.956 4.01-43.603 5.477-62.219 3.86M218.783 356.14C238.74 345.613 255.497 337 256.024 337s17.274 8.605 37.217 19.122c38.4 20.251 41.68 21.521 47.638 18.44 3.72-1.923 7.112-6.958 7.117-10.562.002-1.375-3.137-20.799-6.974-43.164l-6.977-40.665 21.227-20.812c42.228-41.4 40.397-39.439 41.186-44.108.895-5.298-1.613-10.935-5.958-13.391-2.004-1.133-15.952-3.553-42-7.286-21.45-3.074-40.2-5.923-41.667-6.332-2.328-.647-5.097-5.613-21.719-38.948C264.364 107.678 264.24 107.5 256 107.5c-8.291 0-8.406.166-29.103 41.815-16.714 33.635-19.297 38.274-21.686 38.934-1.49.412-20.261 3.262-41.711 6.332-26.07 3.731-39.995 6.144-42 7.278-4.34 2.454-6.853 8.094-5.96 13.376.795 4.705-.251 3.585 40.203 43.053l22.243 21.7-6.992 40.756c-3.846 22.416-6.993 41.79-6.993 43.056-.001 3.554 2.767 8.081 6.298 10.3 6.215 3.905 8.962 2.888 48.484-17.96m-23.39-20.89c2.804-13.965 9.61-57 9.625-60.849l.018-4.901-23.972-23.75C167.879 232.688 157.51 222 158.024 222c.512 0 15.004-2.041 32.204-4.536 22.432-3.254 31.979-5.03 33.772-6.285 1.631-1.14 7.637-11.914 17.282-31l14.782-29.25 14.718 29.264c9.69 19.268 15.572 29.858 17.218 31 1.778 1.234 11.528 3.045 33.772 6.271 17.2 2.495 31.72 4.536 32.268 4.536s-9.824 10.688-23.047 23.75L306.95 269.5l.035 5c.02 2.75 2.274 18.02 5.01 33.932s4.809 29.098 4.606 29.3c-.202.203-12.908-6.273-28.234-14.39-23.972-12.695-28.496-14.758-32.367-14.758-3.874 0-8.354 2.046-32.203 14.708-15.236 8.09-27.985 14.708-28.33 14.708s-.377-1.237-.074-2.75"/></svg>