<svg width="48" height="48" viewBox="0 0 512 512" xmlns="http://www.w3.org/2000/svg"><path style="fill:#000" d="M93 458.015c-14.64-1.994-25.402-7.372-36.01-17.995-8.655-8.667-13.151-16.42-16.015-27.616C39.045 404.859 39 400.693 39 232.356V60.032l2.918-3.266 2.918-3.266h311.328l2.918 3.266L362 60.032V143h105.154l2.923 2.923 2.923 2.923v127.917c0 124.583-.052 128.12-1.997 135.726-5.288 20.676-22.06 37.693-43.503 44.14-5.665 1.703-15.013 1.813-167.5 1.97-88.825.09-163.975-.172-167-.584m261.708-23.765c-4.224-5.796-7.87-12.932-10.346-20.25-1.78-5.263-1.872-12.717-2.131-173.25L341.96 73H58.976l.261 167.302.262 167.302 3.735 7.557c5.819 11.774 15.675 19.645 27.93 22.305 5.182 1.125 30.053 1.39 136.67 1.454l130.335.08ZM101 395.892c-6.485-2.544-8.103-10.943-3.077-15.969l2.923-2.923h200.308l2.923 2.923c4.838 4.838 3.527 12.613-2.617 15.529-2.878 1.366-14.716 1.54-100.611 1.485-61.116-.04-98.28-.429-99.849-1.045m96.388-54.858c-1.161-.477-3.074-2.09-4.25-3.586-2.121-2.696-2.138-3.126-2.138-54.067v-51.35l2.918-3.265 2.918-3.266h104.328l2.918 3.266 2.918 3.266v102.936l-2.917 3.266-2.918 3.266-50.832.2c-27.958.11-51.783-.19-52.945-.666M287 283.5V245h-76v77h76zm-186.643 36.508c-4.635-1.87-6.905-9.248-4.327-14.063 2.37-4.43 5.498-4.945 30.02-4.945h23.15l3.4 3.4c2.45 2.45 3.4 4.294 3.4 6.6s-.95 4.15-3.4 6.6l-3.4 3.4-23.35-.063c-12.842-.035-24.314-.453-25.493-.929m0-55c-5.574-2.249-7.174-10.782-2.945-15.702l2.412-2.806 24.638-.3 24.638-.3 3.45 3.45c4.666 4.666 4.68 8.62.05 13.25l-3.4 3.4-23.35-.063c-12.842-.035-24.314-.453-25.493-.929m-2.434-77.931c-5.728-5.728-2.643-15.14 5.44-16.592 1.725-.31 46.936-.433 100.47-.274l97.331.289 2.918 3.266c3.988 4.463 3.986 9.32-.005 13.31L301.154 190H100.846Zm0-55c-5.124-5.124-3.363-13.682 3.292-16.002 2.117-.738 33.48-1.075 100.033-1.075 85.447 0 97.337.184 100.212 1.548 6.144 2.916 7.455 10.691 2.617 15.529L301.154 135H100.846Zm322.44 305.434c12.731-2.697 22.48-10.37 28.402-22.35l3.735-7.556.266-122.303L453.03 163H362l.02 116.25c.012 72.66.397 118.863 1.027 123.219 2.85 19.727 17.604 33.814 37.201 35.524 12.458 1.086 12.745 1.08 20.116-.482"/></svg>