<svg width="48" height="48" viewBox="0 0 512 512" xmlns="http://www.w3.org/2000/svg"><path style="fill:#000" d="M232 474.9c-87.355-9.79-161.177-70.927-186.494-154.45-29.029-95.768 9.62-198.87 94.219-251.34 35.503-22.019 74.533-33.113 116.486-33.109 98.008.01 184.22 64.888 211.28 158.999 26.525 92.25-9.574 190.87-89.33 244.04-29.937 19.957-63.3 32.014-99.372 35.91-11.169 1.208-35.806 1.18-46.789-.05m42.804-21.455c11.941-.775 29.726-4.47 43.696-9.08 50.248-16.58 92.195-53.195 115.444-100.77 9.648-19.742 15.38-38.4 18.614-60.595 1.315-9.02 1.566-15.92 1.162-32-.514-20.505-1.546-28.685-5.635-44.68C428.31 128.976 362.82 70.595 283.3 59.426c-15.391-2.162-41.172-2.13-55.767.068C156.667 70.17 97.904 116.726 71.644 183c-14.038 35.425-17.48 75.879-9.663 113.583 16.427 79.243 79.364 140.01 160.519 154.986 10.207 1.884 29.297 3.317 37.5 2.816 3.025-.185 9.687-.608 14.804-.94M279.4 372.6c-2.878-2.878-3.4-4.104-3.4-7.984 0-7.35 3.239-10.132 15.24-13.089 12.08-2.976 20.362-7.303 28.461-14.87 15.073-14.084 19.123-35.669 10.2-54.366-3.628-7.601-11.668-16.126-18.45-19.562-4.34-2.2-23.362-7.151-24.21-6.302-.174.173-1.393 4.31-2.708 9.194-6.233 23.132-15.373 44.194-25.948 59.79l-6.404 9.446 2.41 3.266c1.687 2.287 2.409 4.586 2.409 7.671 0 3.677-.562 4.968-3.4 7.806-2.874 2.874-4.107 3.4-7.965 3.4-3.664 0-5.252-.603-8.04-3.05l-3.474-3.051-3.94 2.487c-18.593 11.737-44.185 14.008-58.084 5.154-5.61-3.572-11.947-10.534-14.685-16.13-7.096-14.503-4.911-31.89 6.898-54.91 4.497-8.767 6.496-11.357 16.204-21 7.184-7.136 14.15-12.932 19.828-16.5l8.753-5.5-.574-17.944c-.316-9.868-.75-18.118-.964-18.332s-8.64.018-18.723.515c-10.18.502-19.75.526-21.52.054-7.984-2.133-11.09-12.655-5.56-18.844 2.35-2.63 3.778-3.214 9.75-3.983 3.848-.495 11.046-.964 15.996-1.042 4.95-.077 11.7-.43 15-.783l6-.641.621-19.187c.675-20.826 1.574-24.334 6.934-27.046 6.51-3.294 14.964.273 16.705 7.047.45 1.752.506 11.061.123 20.686-.382 9.625-.582 17.618-.444 17.762.138.143 13.933-.415 30.656-1.242s34.163-1.507 38.755-1.512c8.167-.008 8.424.066 11.75 3.392 2.902 2.902 3.4 4.088 3.4 8.1 0 3.983-.503 5.203-3.296 7.996-3.888 3.888-4.003 3.903-43.704 5.526-14.025.574-28.37 1.295-31.88 1.604l-6.379.56.466 12.911c.257 7.1.701 13.144.988 13.43.286.287 3.172-.188 6.413-1.056s10.945-1.846 17.121-2.172c12.117-.641 11.408-.251 12.77-7.022.95-4.72 5.652-8.277 10.943-8.277 7.514 0 13.125 6.73 11.901 14.274l-.574 3.536 5.866 1.16c11.79 2.332 17.447 4.042 23.59 7.132 12.934 6.505 23.243 17.01 29.829 30.398 5.357 10.889 7.235 18.931 7.24 31 .012 33.717-23.635 62.51-58.704 71.477-11.921 3.049-16.046 2.767-20.19-1.377m-75.536-33.704c4.295-.967 13.975-5.46 17.372-8.065 1.636-1.255 1.596-1.767-.693-8.938-2.795-8.758-6.107-25.344-7.882-39.472-.727-5.789-1.722-9.941-2.44-10.18-.666-.223-5.905 4.245-11.643 9.927-8.958 8.873-11.003 11.533-14.483 18.832-7.41 15.542-8.742 26.473-4.033 33.087 4.487 6.301 11.172 7.652 23.802 4.809m44.075-42.462C254.59 282.95 264.681 253 262.572 253c-2.786 0-17.403 2.474-21.885 3.704l-5.812 1.595.563 3.6c.57 3.643 5.562 44.618 5.562 45.657 0 1.942 2.361-1.842 6.94-11.122"/></svg>