<svg width="48" height="48" viewBox="0 0 512 512" xmlns="http://www.w3.org/2000/svg"><path style="fill:#000" d="M232 474.9c-71.57-8.02-135.065-50.635-169.238-113.583C34.38 309.034 28.231 248.542 45.506 191.55 66.925 120.887 123.748 64.997 195 44.51 296.242 15.398 404.06 62.014 451.706 155.5c16.77 32.902 24.346 64.507 24.263 101.21A219.72 219.72 0 0 1 378.5 438.888c-29.613 19.849-63.685 32.172-99.71 36.064-11.17 1.207-35.807 1.18-46.79-.051m73.236-102.912c21.52-7.178 37.79-21.055 46.298-39.488 4.646-10.067 6.468-18.557 6.451-30.064-.018-12.293-1.88-20.48-7.133-31.346-3.25-6.727-5.794-10.154-12.708-17.124-7.101-7.158-10.161-9.438-17.144-12.774-4.768-2.277-12.013-4.75-16.5-5.634-13.78-2.711-12.5-1.873-12.5-8.177 0-5.014-.346-5.927-3.4-8.981-2.625-2.625-4.232-3.4-7.05-3.4-7.072 0-11.294 3.715-12.5 11l-.58 3.5-10.485.66c-5.767.364-13.55 1.376-17.297 2.25s-7.234 1.59-7.75 1.59c-.538 0-.938-5.745-.938-13.455v-13.454l3.25-.484c1.788-.266 18.89-1.177 38.007-2.023 37.723-1.67 39.334-1.959 42.226-7.551 3.137-6.067.611-13.509-5.436-16.014-3.102-1.284-27.049-.7-67.334 1.643l-10.787.627.686-19.962.686-19.962-2.899-3.244c-5.395-6.038-15.338-5.008-18.942 1.962-1.203 2.326-1.718 7.644-2.17 22.412l-.594 19.363-7.097.547c-3.903.3-13.171.829-20.596 1.175-14.819.69-18.06 1.7-20.483 6.387-2.663 5.15-1.983 9.767 2.032 13.782l3.549 3.549 20.815-.701 20.816-.7.636 3.176c.35 1.747.631 9.983.626 18.302l-.009 15.125-6.227 4c-32.673 20.986-51.537 52.624-48.62 81.542.834 8.275 3.832 14.667 10.092 21.516 13.615 14.897 36.304 16.513 60.618 4.319l9.607-4.818 2.662 2.55c5.4 5.175 15.061 3.82 18.369-2.576 2.203-4.26 1.868-8.236-1.058-12.547l-2.574-3.794 2.3-3.096c12.4-16.692 21.934-37.122 29.357-62.903 1.897-6.592 3.608-12.143 3.802-12.336.79-.79 18.775 3.671 23.31 5.783 7.018 3.267 15.81 12.42 19.495 20.293 6.407 13.69 6.23 27.414-.529 41.09-6.993 14.15-20.696 23.988-39.855 28.615C279.004 354.73 276 357.472 276 364.677c0 3.846.53 5.053 3.54 8.064 3.5 3.498 3.619 3.533 9.987 2.939 3.545-.331 10.614-1.993 15.71-3.692m-118.184-32.333c-5.117-1.927-9.242-7.572-9.803-13.419-.953-9.92 5.79-27.124 14.836-37.853 4.588-5.441 17.621-17.34 19.027-17.37.337-.007.923 3.413 1.302 7.601 1.24 13.677 6.854 41.104 10.2 49.82.355.927-.943 2.38-3.658 4.094-10.125 6.392-25.019 9.718-31.904 7.127m53.55-34.668c-.518-3.126-5.602-45.143-5.602-46.296 0-.855 15.372-4.529 21.883-5.23l6.382-.688-.718 3.863c-2.085 11.223-14.92 43.485-19.834 49.851-1.476 1.914-1.555 1.858-2.111-1.5"/></svg>