<svg width="48" height="48" viewBox="0 0 512 512" xmlns="http://www.w3.org/2000/svg"><path style="fill:#000" d="M423 458.902c-11.262-2.2-23.819-11.746-29.121-22.14-4.9-9.603-4.843-7.784-4.862-156.512L389 141h76.847l3.047 2.564c1.676 1.41 3.508 4.223 4.071 6.25 1.347 4.851 1.414 266.3.07 274.507-2.825 17.252-16.73 31.465-33.921 34.674-6.21 1.159-9.811 1.138-16.114-.093m-327-.54c-8.67-1.265-14.502-3.011-21.944-6.57-11.337-5.42-22.982-16.815-28.405-27.793-7.724-15.639-7.064 1.3-7.385-189.499-.271-161.596-.19-171.191 1.473-174.48.969-1.914 3.29-4.502 5.159-5.75L48.296 52l152.602.002c143.28.001 152.816.108 156.102 1.75 2.002 1 4.248 3.246 5.248 5.248 1.646 3.293 1.75 14.252 1.768 185.5.02 203.17-.472 189.188 7.216 204.5 2.347 4.675 4.418 8.838 4.601 9.25.325.73-274.848.84-279.833.113m207.033-62.879c5.62-2.906 7.745-11.664 4.26-17.563-3.695-6.256 1.62-5.975-107.301-5.684l-99.146.264-3.423 3.735c-2.736 2.986-3.423 4.56-3.423 7.846 0 4.792 2.165 8.934 5.873 11.235 2.381 1.478 11.86 1.633 101.427 1.657 86.391.024 99.168-.164 101.733-1.49m-1.072-53.963c1.574-.814 3.802-2.675 4.95-4.135 2.058-2.615 2.089-3.432 2.089-54.943v-52.289l-2.574-3.058c-1.415-1.682-4.228-3.543-6.25-4.136-2.473-.724-19.874-.976-53.176-.768-46.681.291-49.66.417-52.301 2.207-5.793 3.926-5.7 2.972-5.695 58.302.004 49.17.068 50.906 2.02 54.107 3.746 6.144 3.43 6.11 58.276 6.154 42.066.033 50.244-.19 52.661-1.441m-87.294-24.187c-.367-.366-.667-16.116-.667-35V248h70v70h-34.333c-18.884 0-34.634-.3-35-.667m-59.126 1.326c1.838-1.838 3.662-4.621 4.055-6.186.984-3.92-1.458-10.319-4.917-12.882-2.65-1.964-4.29-2.11-27.03-2.39-23.93-.294-24.25-.27-27.665 2.03-5.87 3.956-7.65 10.645-4.471 16.793 2.882 5.574 4.588 5.892 31.837 5.936l24.85.04Zm-1.439-52.942c3.923-2.635 6.575-8.885 5.532-13.039-.372-1.481-1.979-4.152-3.571-5.936l-2.896-3.242-24.833-.32c-21.446-.275-25.253-.096-27.904 1.311-6.711 3.563-8.585 12.794-3.762 18.527 1.468 1.744 3.606 3.55 4.75 4.013s12.703.87 25.684.906c22.97.061 23.693.002 27-2.22m148.93-74.234c5.621-2.906 7.746-11.664 4.262-17.563-3.696-6.256 1.62-5.975-107.302-5.684l-99.146.264-3.423 3.735c-2.736 2.986-3.423 4.56-3.423 7.846 0 4.792 2.165 8.934 5.873 11.235 2.381 1.478 11.86 1.633 101.427 1.657 86.391.024 99.168-.164 101.733-1.49m-1.07-53.963c4.82-2.493 7.038-6.196 7.038-11.755 0-4.313-.446-5.411-3.4-8.365l-3.4-3.4h-99.65c-109.792 0-103.768-.348-107.144 6.183-2.03 3.926-1.407 11.04 1.226 13.994 4.337 4.866 1.61 4.742 105.168 4.784 84.002.034 97.69-.163 100.161-1.441"/></svg>