<svg width="48" height="48" viewBox="0 0 512 512" xmlns="http://www.w3.org/2000/svg"><path style="fill:#000" d="M244.5 472.39c-31.215-2.271-57.148-9.165-84-22.329C94.97 417.936 50.476 355.41 40.908 282c-1.77-13.58-1.522-41.105.5-55.317C55.3 128.987 131.71 53.719 230 40.908c13.642-1.779 41.103-1.522 55.45.518C357.241 51.632 418.366 95.848 450.061 160.5c15.353 31.317 22.233 60.867 22.233 95.5s-6.88 64.183-22.233 95.5c-35.387 72.184-106.53 118.006-187.561 120.804-7.15.247-15.25.286-18 .086m29.5-19.462c39.213-3.632 77.253-19.153 107.288-43.774 9.561-7.838 25.854-24.795 32.954-34.298 22.68-30.356 35.762-65.426 38.926-104.344 4.012-49.35-12.275-101.083-44.014-139.8-7.826-9.547-24.79-25.85-34.26-32.924-30.44-22.742-65.292-35.755-104.433-38.994-46.339-3.835-95.111 10.42-133.317 38.964-9.503 7.1-26.46 23.393-34.298 32.954-14.816 18.073-26.8 39.89-34.294 62.43C47.86 255.38 58.649 322.225 97.905 375c7.248 9.744 21.37 24.44 32.163 33.467C169.5 441.45 222.191 457.727 274 452.928m-100.612-79.917c-2.587-1.034-6.378-5.698-6.417-7.896-.016-.888 3.23-20.703 7.212-44.033l7.241-42.417-31.725-31.083c-30.098-29.487-31.725-31.267-31.712-34.697.015-4.146 2.885-8.386 6.247-9.228 1.246-.312 19.591-3.074 40.766-6.136s40.01-5.841 41.854-6.175c3.307-.6 3.622-1.153 22.692-40.004 18.405-37.494 19.51-39.467 22.896-40.882 3.15-1.316 3.967-1.316 7.123.003 3.396 1.418 4.489 3.368 22.917 40.886 19.055 38.793 19.403 39.406 22.685 39.99 1.833.326 20.658 3.105 41.833 6.175s39.52 5.836 40.766 6.147c3.352.834 6.23 5.077 6.257 9.224.022 3.433-1.57 5.177-31.71 34.712l-31.732 31.097 7.238 42.403c3.981 23.321 7.226 43.183 7.21 44.137-.052 3.128-5.417 8.1-8.74 8.1-1.994 0-16.167-6.895-41.634-20.253l-38.61-20.252-38.273 19.992c-21.05 10.996-39.172 20.227-40.272 20.513s-2.95.14-4.112-.323m48.76-43.503c17.243-9.07 32.477-16.492 33.852-16.492s16.609 7.421 33.852 16.492c17.244 9.07 31.793 16.492 32.33 16.492s.726-1.237.42-2.75c-.307-1.512-3.07-17.556-6.139-35.651-4.654-27.441-5.389-33.364-4.425-35.69.635-1.534 3.924-5.369 7.308-8.522 11.682-10.886 44.629-43.746 44.245-44.129-.211-.211-16.373-2.732-35.915-5.601-28.354-4.163-35.95-5.594-37.597-7.086-1.137-1.028-9.122-16.202-17.746-33.72S256.357 141 255.994 141s-7.726 14.38-16.364 31.957c-9.061 18.437-16.691 32.733-18.036 33.79-1.792 1.41-10.036 2.939-35.712 6.622-18.36 2.634-34.45 5.11-35.754 5.5-2.164.65-.138 2.896 23.159 25.672 14.041 13.727 26.051 26.105 26.689 27.505.957 2.103.185 8.29-4.43 35.5-3.075 18.125-5.841 34.192-6.148 35.704s-.117 2.75.42 2.75 15.086-7.421 32.33-16.492"/></svg>