<svg width="48" height="48" viewBox="0 0 512 512" xmlns="http://www.w3.org/2000/svg"><path style="fill:#000" d="M245 437.31c-18.38-11.364-43.7-21.793-66.442-27.367-19.948-4.89-32.747-6.339-56.058-6.348-24.221-.01-37.294 1.588-58.5 7.152-21.774 5.712-24.907 5.657-26.877-.474-.93-2.897-1.143-34.878-.917-137.773.249-113.5.51-134.326 1.709-136.129 1.01-1.52 5.58-3.448 16-6.75 8.022-2.543 16.048-4.904 17.835-5.247l3.25-.624v-22.226c0-13.687.426-23.447 1.108-25.405 1.887-5.41 5.474-6.497 18.816-5.7 60.322 3.607 117.589 33.314 154.861 80.334 3.599 4.539 6.64 8.139 6.76 8 .12-.14 3.047-3.853 6.504-8.253 17.976-22.882 46.136-45.284 73.736-58.66 27.03-13.1 62.503-21.797 89.042-21.832 5.665-.007 6.633.298 9.25 2.915L438 75.846v48.911l6.606 1.66c11.593 2.911 25.805 7.76 28.644 9.77l2.75 1.95v271.67l-3.184 3.597c-4.04 4.562-6.708 4.631-20.816.536-35.779-10.386-78.537-11.63-115.87-3.372-23.304 5.156-49.208 15.252-69.198 26.972-9.872 5.788-12.238 5.763-21.932-.23m57.155-65.135c30.487-22.65 69.287-38.353 102.845-41.624 3.575-.349 8.188-.88 10.25-1.18l3.75-.547V88.712l-8.006.668c-17.083 1.425-38.812 7.163-57.748 15.252-31.863 13.609-60.465 35.998-81.352 63.68L266 176.123v229.925l13.25-13.35c7.288-7.342 17.595-16.578 22.905-20.523M247 290.75V176.5l-6.678-8.899c-26.508-35.32-64.894-61.234-107.422-72.52-12.643-3.354-28.132-6.07-34.654-6.077L93.992 89l.254 119.75.254 119.75 8.783.731c38.135 3.177 81.034 20.706 112.182 45.841 8.307 6.704 29.535 27.603 29.535 29.079 0 .467.45.849 1 .849.66 0 1-38.75 1-114.25m-31.563 109.149c-9.988-10.547-30.676-24.72-48.802-33.434-23.255-11.178-45.31-16.876-71.255-18.406-14.248-.84-16.063-1.321-19.098-5.059-.94-1.156-1.226-24.283-1.25-100.861L75 142.777l-3.75.696c-2.062.383-6.675 1.67-10.25 2.861l-6.5 2.166-.254 123.25c-.14 67.788.01 123.25.333 123.25s4.064-.888 8.313-1.972c20.115-5.136 32.218-6.439 60.108-6.47 20.551-.024 28.97.363 37.5 1.726 14.387 2.297 33.63 7.017 45.5 11.16 12.148 4.24 13.064 4.284 9.437.454m86.407 1.069c24.223-9.207 57.755-14.964 87.162-14.967 20.871-.002 47.602 3.236 62.426 7.56 2.712.792 5.3 1.439 5.75 1.439s.818-55.505.818-123.345V148.309l-8.846-2.654c-4.865-1.46-9.59-2.655-10.5-2.655-1.528 0-1.654 7.6-1.654 99.545v99.546l-2.455 2.454c-1.601 1.602-3.6 2.46-5.75 2.47-17.76.086-42.73 4.289-60.253 10.141-26.282 8.779-54.858 25.904-70.488 42.242-3.98 4.159-3.521 4.349 3.79 1.57"/></svg>