<svg width="48" height="48" viewBox="0 0 512 512" xmlns="http://www.w3.org/2000/svg"><path style="fill:#000" d="M204 256V49h259v414H204Zm-26 186c0-.55-.9-1.9-2-3-1.758-1.758-3.333-2-13-2h-11V75h11c9.667 0 11.242-.242 13-2 1.1-1.1 2-2.45 2-3 0-.556 2.667-1 6-1h6v374h-6c-3.333 0-6-.444-6-1m-51.977-26.44c-1.429-3.758-4.06-4.56-14.957-4.56H101V101h10.066c10.897 0 13.528-.802 14.957-4.56.842-2.214 1.486-2.44 6.952-2.44H139v324h-6.025c-5.466 0-6.11-.226-6.952-2.44M75 390.956c0-.575-1.105-2.15-2.455-3.5-2.295-2.296-3.136-2.455-13-2.455H49V127h10.545c9.864 0 10.705-.159 13-2.455 1.35-1.35 2.455-2.925 2.455-3.5 0-.61 2.493-1.045 6-1.045h6v272h-6c-3.507 0-6-.434-6-1.045"/></svg>