<svg width="48" height="48" viewBox="0 0 512 512" xmlns="http://www.w3.org/2000/svg"><path style="fill:#000" d="M189.035 474.066c-1.446-2.703-1.446-433.429 0-436.132 1.016-1.898 3.679-1.934 144-1.934H476v440H333.035c-140.321 0-142.984-.036-144-1.934M460 256V52H206v408h254ZM139.306 450.587l-2.806-2.414V63.827l2.806-2.414c2.72-2.34 3.306-2.413 19.295-2.413 16.099 0 16.547.057 18.904 2.414 3.495 3.495 4.065 6.923 1.8 10.816-2.434 4.181-6.665 5.642-16.555 5.714L155 78v356l7.75.056c9.89.072 14.12 1.533 16.554 5.714 2.266 3.893 1.696 7.32-1.8 10.816-2.356 2.357-2.804 2.414-18.903 2.414-15.99 0-16.575-.073-19.295-2.413M91 426.74c-2.355-.834-4.072-2.385-5.248-4.74-1.644-3.289-1.749-13.294-1.749-166s.105-162.711 1.749-166c2.589-5.183 6.78-6.218 23.581-5.824l13.833.324 2.917 3.266c3.875 4.338 3.873 8.432-.006 12.31-2.844 2.845-3.196 2.924-13 2.924H103v306h10.077c9.804 0 10.156.08 13 2.923 3.879 3.879 3.881 7.973.006 12.311l-2.917 3.266-14.333.24c-9.442.158-15.528-.183-17.833-1m-52.25-25.902L36 399.833V112.196l3.15-1.098c4.955-1.728 29.323-1.422 32.87.412 5.972 3.088 6.94 10.663 1.903 14.901-2.833 2.384-3.82 2.589-12.5 2.589H52v254h9.423c8.68 0 9.667.205 12.5 2.589 5.036 4.237 4.069 11.812-1.903 14.9-3.427 1.773-28.649 2.037-33.27.349"/></svg>