<svg width="48" height="48" viewBox="0 0 512 512" xmlns="http://www.w3.org/2000/svg"><path style="fill:#000" d="M235.5 417.285c-19.14-20.207-39.296-35.096-64.5-47.648-27.432-13.66-54.421-21.358-84.75-24.168l-7.25-.672V83h2.622c5.68 0 24.536 3.323 36.878 6.498 48.774 12.55 93.103 42.614 122.75 83.25l4.75 6.512v124.37c0 68.403-.112 124.334-.25 124.29-.137-.043-4.75-4.83-10.25-10.635M267 302.68V178.305l6.694-8.902c8.24-10.959 26.093-29.435 36.806-38.092 24.499-19.798 52.836-34.1 82.746-41.762C406.267 86.213 424.731 83 430.878 83H434v261.674l-11.25 1.204c-54.994 5.889-104.124 29.384-143 68.385L267 427.055Zm-58 120.723c-5.665-2.458-25.808-8.078-38.618-10.774-40.129-8.446-91.246-7.342-129.136 2.787l-5.253 1.405.253-134.63.254-134.63 10.5-3.154 10.5-3.153.5 109.46.5 109.46 2.628 2.26c2.31 1.987 4.163 2.345 15.317 2.965 43.688 2.428 83.94 17.012 117.534 42.585 7.547 5.745 20.124 16.946 19.021 16.94-.275 0-2.075-.686-4-1.521m94-1.855c14.782-15.848 46.251-35.096 71.922-43.99 19.81-6.863 42.784-11.488 57.706-11.618 11.112-.096 16.439-1.316 19.062-4.366l2.31-2.686V250.444c0-87.871.245-108.444 1.29-108.444.71 0 5.66 1.366 11 3.035l9.71 3.036v268.651l-9.75-2.365c-34.376-8.34-78.765-9.59-114.75-3.23-15.94 2.817-36.478 8.33-50 13.42-1.435.54-1.01-.307 1.5-2.999"/></svg>