<svg width="48" height="48" viewBox="0 0 512 512" xmlns="http://www.w3.org/2000/svg"><path style="fill:#000" d="M140.002 471.88c-44.741-5.225-82.986-37.744-95.432-81.143-18.448-64.331 24.28-131.131 90.68-141.77l7.75-1.241v-86.727c0-54.484.377-88.716 1.015-92.078 2.268-11.958 10.89-22.724 21.688-27.082L171.5 39.5l102.988-.273c71.1-.188 103.783.057 105.556.791 3.844 1.593 90.715 88.994 91.424 91.982.326 1.375.466 72.485.312 158.021l-.28 155.522-3.28 6.663c-3.991 8.106-11.026 14.761-19.018 17.99L443.5 472.5l-148 .128c-81.4.07-151.374-.266-155.498-.747m25.024-18.926c20.286-2.504 38.812-11.77 53.974-26.993 20.622-20.706 29.766-46.472 26.87-75.715-1.139-11.5-3.304-19.229-8.437-30.113-12.33-26.148-35.076-44.678-62.716-51.093-23.951-5.56-47.57-2.225-68.652 9.692-9.713 5.49-23.009 17.528-29.67 26.863-5.81 8.142-11.688 20.82-14.56 31.405-1.955 7.2-2.295 10.795-2.229 23.5.092 17.434 1.847 25.63 8.444 39.428 17.85 37.338 55.83 58.105 96.976 53.026m-18.505-86.342c-1.314-1.314-2.669-3.901-3.011-5.75s-.485-15.212-.316-29.696l.306-26.333 3.387-3.025c2.86-2.553 3.951-2.935 7-2.45 2.12.337 4.543 1.644 5.863 3.164 2.193 2.524 2.25 3.174 2.25 25.534V351h14.066c8.163 0 14.913.453 16.084 1.08 1.11.595 2.662 2.62 3.448 4.5 1.238 2.964 1.238 3.876 0 6.84-.786 1.88-2.337 3.905-3.448 4.5-1.258.673-9.778 1.08-22.63 1.08-20.395 0-20.636-.025-23-2.388m297.513 85.138c2.937-1.483 5.221-3.614 6.695-6.25l2.238-4 .017-148.75L453 144h-80.154l-2.923-2.923-2.923-2.923V58H175.315l-4.355 2.303c-2.976 1.574-5.083 3.68-6.657 6.657L162 71.315v176.339l8.25 1.243c15.815 2.384 36.504 10.948 48.5 20.077l5.25 3.995 90.977.265 90.978.266 2.723 2.723c3.97 3.97 3.775 9.09-.494 12.904L404.968 292h-80.984c-44.541 0-80.984.18-80.984.4s1.64 2.807 3.645 5.75c8.447 12.4 15.708 31.777 17.836 47.6l.707 5.25h69.972c48.21 0 70.6.336 71.99 1.08 1.11.595 2.662 2.62 3.448 4.5 1.238 2.964 1.238 3.876 0 6.84-.786 1.88-2.337 3.905-3.448 4.5-1.39.744-23.78 1.08-71.99 1.08h-69.972l-.707 5.25c-2.37 17.616-11.203 39.455-21.337 52.75-4.971 6.523-17.602 19.192-24.144 24.217l-3.5 2.69 112.038.046 112.038.047ZM208.775 213.441c-5.784-3.139-6.647-10.688-1.698-14.852l3.076-2.589h96.877c70.314 0 97.561.312 99.375 1.139 1.374.626 3.224 2.668 4.111 4.537 1.504 3.168 1.49 3.65-.201 7.103-.998 2.038-2.94 4.265-4.315 4.948-1.941.966-23.948 1.238-98.5 1.218-82.791-.022-96.375-.229-98.725-1.504M439 124.743c0-.141-11.925-12.176-26.5-26.743L386 71.514V125h26.5c14.575 0 26.5-.116 26.5-.257"/></svg>