<svg width="48" height="48" viewBox="0 0 512 512" xmlns="http://www.w3.org/2000/svg"><path style="fill:#000" d="M140.349 470.945c-24.497-3.193-46.447-13.955-64.742-31.743-52.147-50.7-43.966-135.236 17.013-175.81 9.946-6.619 20.781-11.438 34.014-15.13 9.2-2.568 11.116-2.75 28.366-2.683 20.427.078 25.958 1.083 42.493 7.722 25.89 10.395 49.963 33.938 61.188 59.84 13.16 30.37 12.14 66.445-2.71 95.859-21.622 42.825-68.72 68.058-115.622 61.945M194.9 369.55c4.053-2.096 6.266-6.048 6.266-11.191 0-5.176-1.98-8.666-6.471-11.404-2.688-1.639-5.064-1.95-14.946-1.952L168 345l-.002-19.75c-.002-21.655-.619-24.497-6.21-28.596-3.395-2.488-10.628-2.644-14.196-.307-6.03 3.952-6.092 4.323-6.092 36.609 0 40.147-1.728 37.943 29.8 38.004 16.267.031 21.41-.276 23.6-1.409zm45.6 99.21c19.958-15.978 36.43-38.395 45.06-61.323 2.721-7.229 6.838-23.7 7.92-31.686l.643-4.75h55.303c55.218 0 55.309-.003 58.06-2.168 2.993-2.354 5.514-7.413 5.514-11.065 0-3.716-3.393-8.972-7.062-10.94-3.18-1.705-7.024-1.827-57.593-1.827H294.16l-.526-2.75c-.29-1.512-.807-4.775-1.152-7.25-1.065-7.663-5.372-22.584-9.009-31.206-1.91-4.528-3.472-8.36-3.472-8.514s27.788-.282 61.75-.284c60.172-.004 61.835-.055 65.06-2.022 3.396-2.07 6.19-7.13 6.19-11.207 0-3.716-3.393-8.972-7.062-10.94-3.206-1.72-7.515-1.827-73.185-1.827h-69.779l-9.281-9.25c-26.764-26.673-60.322-40.762-97.943-41.12L142 218.5l.006-70c.003-39.615.42-72.527.959-75.82 2.152-13.145 9.8-23.305 21.834-29.006L171.5 40.5l94.75-.274L361 39.95v49.79c0 46.363.126 50.03 1.835 53.275 3.733 7.09 2.82 6.98 58.415 6.982L471 150v144.395c0 142.214-.03 144.493-2.027 150.958-2.385 7.721-6.66 13.692-13.518 18.878-10.299 7.79-1.795 7.242-116.455 7.5l-102.5.23zm166.31-251.785c3.396-2.07 6.19-7.13 6.19-11.207 0-3.716-3.393-8.972-7.062-10.94-3.232-1.733-8.336-1.827-99.222-1.827-104.4 0-98.98-.294-103.628 5.615-2.568 3.265-2.799 10.373-.465 14.324 3.775 6.39-2.85 6.005 103.877 6.03 95.551.023 97.05-.006 100.31-1.995M387 85.754V47.51l38 37.99c20.9 20.895 38 38.105 38 38.245s-17.1.255-38 .255h-38z"/></svg>